<?xml version="1.0" encoding="UTF-8" standalone="no"?>
<!DOCTYPE svg PUBLIC "-//W3C//DTD SVG 1.1//EN"
 "http://www.w3.org/Graphics/SVG/1.1/DTD/svg11.dtd">
<!-- Generated by graphviz version 2.38.0 (20140413.2041)
 -->
<!-- Title: G Pages: 1 -->
<svg width="347pt" height="258pt"
 viewBox="0.00 0.00 347.00 258.00" xmlns="http://www.w3.org/2000/svg" xmlns:xlink="http://www.w3.org/1999/xlink">
<g id="graph0" class="graph" transform="scale(1 1) rotate(0) translate(4 254)">
<title>G</title>
<polygon fill="white" stroke="none" points="-4,4 -4,-254 343,-254 343,4 -4,4"/>
<g id="clust1" class="cluster"><title>cluster_Global</title>
<path fill="none" stroke="gray" d="M20,-8C20,-8 319,-8 319,-8 325,-8 331,-14 331,-20 331,-20 331,-230 331,-230 331,-236 325,-242 319,-242 319,-242 20,-242 20,-242 14,-242 8,-236 8,-230 8,-230 8,-20 8,-20 8,-14 14,-8 20,-8"/>
<text text-anchor="middle" x="169.5" y="-229.2" font-family="Times New Roman,serif" font-size="11.00" fill="gray">Global</text>
</g>
<!-- \\validacionFormularios -->
<g id="node1" class="node"><title>\\validacionFormularios</title>
<polygon fill="none" stroke="black" points="323,-214 165,-214 165,-178 323,-178 323,-214"/>
<text text-anchor="middle" x="244" y="-193.2" font-family="Courier,monospace" font-size="11.00">validacionFormularios</text>
</g>
<!-- \\DBPDO -->
<g id="node2" class="node"><title>\\DBPDO</title>
<polygon fill="none" stroke="black" points="271,-160 217,-160 217,-124 271,-124 271,-160"/>
<text text-anchor="middle" x="244" y="-139.2" font-family="Courier,monospace" font-size="11.00">DBPDO</text>
</g>
<!-- \\Usuario -->
<g id="node3" class="node"><title>\\Usuario</title>
<polygon fill="none" stroke="black" points="276,-106 212,-106 212,-70 276,-70 276,-106"/>
<text text-anchor="middle" x="244" y="-85.2" font-family="Courier,monospace" font-size="11.00">Usuario</text>
</g>
<!-- \\UsuarioPDO -->
<g id="node4" class="node"><title>\\UsuarioPDO</title>
<polygon fill="none" stroke="black" points="286,-52 202,-52 202,-16 286,-16 286,-52"/>
<text text-anchor="middle" x="244" y="-31.2" font-family="Courier,monospace" font-size="11.00">UsuarioPDO</text>
</g>
<!-- \\UsuarioDB -->
<g id="node5" class="node"><title>\\UsuarioDB</title>
<polygon fill="none" stroke="black" points="93,-52 16,-52 16,-16 93,-16 93,-52"/>
<text text-anchor="middle" x="54.5" y="-31.2" font-family="Courier,monospace" font-size="11.00">UsuarioDB</text>
</g>
<!-- \\UsuarioPDO&#45;&gt;\\UsuarioDB -->
<g id="edge1" class="edge"><title>\\UsuarioPDO&#45;&gt;\\UsuarioDB</title>
<path fill="none" stroke="black" stroke-dasharray="1,5" d="M201.852,-34C172.827,-34 133.855,-34 103.425,-34"/>
<polygon fill="none" stroke="black" points="103.048,-30.5001 93.0481,-34 103.048,-37.5001 103.048,-30.5001"/>
</g>
</g>
</svg>
